<svg xmlns="http://www.w3.org/2000/svg" width="2000" height="1120" viewBox="0 0 2000 1120">
<rect width="100%" height="100%" fill="white"/>
<style>
text { font-family: "Segoe UI", Arial, sans-serif; fill: #0f172a; }
.period { font-size: 28px; font-weight: 600; }
.label { font-size: 20px; }
.title { font-size: 34px; font-weight: 700; }
</style>
<text class="title" x="140" y="56">Topic Transition Sankey</text>
<text class="period" x="153.0" y="95" text-anchor="middle">2010-2015</text>
<text class="period" x="1000.0" y="95" text-anchor="middle">2015-2020</text>
<text class="period" x="1847.0" y="95" text-anchor="middle">2020-2025</text>
<path d="M 166.0 598.6 C 560.1 598.6, 592.9 1056.3, 987.0 1056.3" fill="none" stroke="#3b82f6" stroke-opacity="0.48" stroke-width="5.88" stroke-linecap="round"/>
<path d="M 166.0 981.1 C 560.1 981.1, 592.9 727.1, 987.0 727.1" fill="none" stroke="#3b82f6" stroke-opacity="0.48" stroke-width="4.95" stroke-linecap="round"/>
<path d="M 166.0 756.5 C 560.1 756.5, 592.9 810.1, 987.0 810.1" fill="none" stroke="#3b82f6" stroke-opacity="0.48" stroke-width="5.56" stroke-linecap="round"/>
<path d="M 166.0 832.7 C 560.1 832.7, 592.9 893.1, 987.0 893.1" fill="none" stroke="#3b82f6" stroke-opacity="0.48" stroke-width="5.56" stroke-linecap="round"/>
<path d="M 166.0 162.1 C 560.1 162.1, 592.9 170.0, 987.0 170.0" fill="none" stroke="#3b82f6" stroke-opacity="0.48" stroke-width="8.33" stroke-linecap="round"/>
<path d="M 166.0 431.8 C 560.1 431.8, 592.9 1133.5, 987.0 1133.5" fill="none" stroke="#3b82f6" stroke-opacity="0.48" stroke-width="5.44" stroke-linecap="round"/>
<path d="M 166.0 516.1 C 560.1 516.1, 592.9 559.8, 987.0 559.8" fill="none" stroke="#3b82f6" stroke-opacity="0.48" stroke-width="6.38" stroke-linecap="round"/>
<path d="M 166.0 1311.7 C 560.1 1311.7, 592.9 643.7, 987.0 643.7" fill="none" stroke="#3b82f6" stroke-opacity="0.48" stroke-width="2.85" stroke-linecap="round"/>
<path d="M 166.0 678.8 C 560.1 678.8, 592.9 975.7, 987.0 975.7" fill="none" stroke="#3b82f6" stroke-opacity="0.48" stroke-width="5.88" stroke-linecap="round"/>
<path d="M 166.0 1186.6 C 560.1 1186.6, 592.9 1277.9, 987.0 1277.9" fill="none" stroke="#3b82f6" stroke-opacity="0.48" stroke-width="4.52" stroke-linecap="round"/>
<path d="M 166.0 908.4 C 560.1 908.4, 592.9 473.8, 987.0 473.8" fill="none" stroke="#3b82f6" stroke-opacity="0.48" stroke-width="5.44" stroke-linecap="round"/>
<path d="M 166.0 258.5 C 560.1 258.5, 592.9 282.3, 987.0 282.3" fill="none" stroke="#3b82f6" stroke-opacity="0.48" stroke-width="7.08" stroke-linecap="round"/>
<path d="M 166.0 346.6 C 560.1 346.6, 592.9 382.6, 987.0 382.6" fill="none" stroke="#3b82f6" stroke-opacity="0.48" stroke-width="6.56" stroke-linecap="round"/>
<path d="M 166.0 1051.0 C 560.1 1051.0, 592.9 1207.5, 987.0 1207.5" fill="none" stroke="#3b82f6" stroke-opacity="0.48" stroke-width="4.81" stroke-linecap="round"/>
<path d="M 166.0 1253.1 C 560.1 1253.1, 592.9 1345.0, 987.0 1345.0" fill="none" stroke="#3b82f6" stroke-opacity="0.48" stroke-width="4.52" stroke-linecap="round"/>
<path d="M 166.0 1119.5 C 560.1 1119.5, 592.9 1405.0, 987.0 1405.0" fill="none" stroke="#3b82f6" stroke-opacity="0.48" stroke-width="3.16" stroke-linecap="round"/>
<path d="M 1013.0 1056.3 C 1407.1 1056.3, 1439.9 908.9, 1834.0 908.9" fill="none" stroke="#3b82f6" stroke-opacity="0.48" stroke-width="5.88" stroke-linecap="round"/>
<path d="M 1013.0 727.1 C 1407.1 727.1, 1439.9 1854.2, 1834.0 1854.2" fill="none" stroke="#3b82f6" stroke-opacity="0.48" stroke-width="4.37" stroke-linecap="round"/>
<path d="M 1013.0 810.1 C 1407.1 810.1, 1439.9 1622.5, 1834.0 1622.5" fill="none" stroke="#3b82f6" stroke-opacity="0.48" stroke-width="6.28" stroke-linecap="round"/>
<path d="M 1013.0 893.1 C 1407.1 893.1, 1439.9 1442.4, 1834.0 1442.4" fill="none" stroke="#3b82f6" stroke-opacity="0.48" stroke-width="6.28" stroke-linecap="round"/>
<path d="M 1013.0 170.0 C 1407.1 170.0, 1439.9 201.7, 1834.0 201.7" fill="none" stroke="#3b82f6" stroke-opacity="0.48" stroke-width="10.00" stroke-linecap="round"/>
<path d="M 1013.0 1133.5 C 1407.1 1133.5, 1439.9 666.6, 1834.0 666.6" fill="none" stroke="#3b82f6" stroke-opacity="0.48" stroke-width="5.44" stroke-linecap="round"/>
<path d="M 1013.0 559.8 C 1407.1 559.8, 1439.9 1347.1, 1834.0 1347.1" fill="none" stroke="#3b82f6" stroke-opacity="0.48" stroke-width="6.38" stroke-linecap="round"/>
<path d="M 1013.0 643.7 C 1407.1 643.7, 1439.9 372.5, 1834.0 372.5" fill="none" stroke="#3b82f6" stroke-opacity="0.48" stroke-width="6.38" stroke-linecap="round"/>
<path d="M 1013.0 975.7 C 1407.1 975.7, 1439.9 1138.4, 1834.0 1138.4" fill="none" stroke="#3b82f6" stroke-opacity="0.48" stroke-width="6.19" stroke-linecap="round"/>
<path d="M 1013.0 1277.9 C 1407.1 1277.9, 1439.9 1024.3, 1834.0 1024.3" fill="none" stroke="#3b82f6" stroke-opacity="0.48" stroke-width="4.67" stroke-linecap="round"/>
<path d="M 1013.0 473.8 C 1407.1 473.8, 1439.9 1533.9, 1834.0 1533.9" fill="none" stroke="#3b82f6" stroke-opacity="0.48" stroke-width="6.82" stroke-linecap="round"/>
<path d="M 1013.0 282.3 C 1407.1 282.3, 1439.9 525.7, 1834.0 525.7" fill="none" stroke="#3b82f6" stroke-opacity="0.48" stroke-width="8.78" stroke-linecap="round"/>
<path d="M 1013.0 382.6 C 1407.1 382.6, 1439.9 792.7, 1834.0 792.7" fill="none" stroke="#3b82f6" stroke-opacity="0.48" stroke-width="7.47" stroke-linecap="round"/>
<path d="M 1013.0 1457.2 C 1407.1 1457.2, 1439.9 1787.7, 1834.0 1787.7" fill="none" stroke="#3b82f6" stroke-opacity="0.48" stroke-width="2.85" stroke-linecap="round"/>
<path d="M 1013.0 1207.5 C 1407.1 1207.5, 1439.9 1710.2, 1834.0 1710.2" fill="none" stroke="#3b82f6" stroke-opacity="0.48" stroke-width="5.20" stroke-linecap="round"/>
<path d="M 1013.0 1345.0 C 1407.1 1345.0, 1439.9 1246.9, 1834.0 1246.9" fill="none" stroke="#3b82f6" stroke-opacity="0.48" stroke-width="4.52" stroke-linecap="round"/>
<path d="M 166.0 162.1 C 560.1 162.1, 592.9 282.3, 987.0 282.3" fill="none" stroke="#475569" stroke-opacity="0.18" stroke-width="9.07" stroke-linecap="round"/>
<path d="M 166.0 258.5 C 560.1 258.5, 592.9 170.0, 987.0 170.0" fill="none" stroke="#475569" stroke-opacity="0.18" stroke-width="8.69" stroke-linecap="round"/>
<path d="M 166.0 346.6 C 560.1 346.6, 592.9 170.0, 987.0 170.0" fill="none" stroke="#475569" stroke-opacity="0.18" stroke-width="7.97" stroke-linecap="round"/>
<path d="M 166.0 431.8 C 560.1 431.8, 592.9 170.0, 987.0 170.0" fill="none" stroke="#475569" stroke-opacity="0.18" stroke-width="7.85" stroke-linecap="round"/>
<path d="M 166.0 516.1 C 560.1 516.1, 592.9 170.0, 987.0 170.0" fill="none" stroke="#475569" stroke-opacity="0.18" stroke-width="7.72" stroke-linecap="round"/>
<path d="M 166.0 162.1 C 560.1 162.1, 592.9 382.6, 987.0 382.6" fill="none" stroke="#475569" stroke-opacity="0.18" stroke-width="7.61" stroke-linecap="round"/>
<path d="M 166.0 598.6 C 560.1 598.6, 592.9 170.0, 987.0 170.0" fill="none" stroke="#475569" stroke-opacity="0.18" stroke-width="7.32" stroke-linecap="round"/>
<path d="M 166.0 678.8 C 560.1 678.8, 592.9 170.0, 987.0 170.0" fill="none" stroke="#475569" stroke-opacity="0.18" stroke-width="7.04" stroke-linecap="round"/>
<path d="M 166.0 346.6 C 560.1 346.6, 592.9 282.3, 987.0 282.3" fill="none" stroke="#475569" stroke-opacity="0.18" stroke-width="6.98" stroke-linecap="round"/>
<path d="M 166.0 162.1 C 560.1 162.1, 592.9 473.8, 987.0 473.8" fill="none" stroke="#475569" stroke-opacity="0.18" stroke-width="6.90" stroke-linecap="round"/>
<path d="M 166.0 431.8 C 560.1 431.8, 592.9 282.3, 987.0 282.3" fill="none" stroke="#475569" stroke-opacity="0.18" stroke-width="6.87" stroke-linecap="round"/>
<path d="M 166.0 516.1 C 560.1 516.1, 592.9 282.3, 987.0 282.3" fill="none" stroke="#475569" stroke-opacity="0.18" stroke-width="6.76" stroke-linecap="round"/>
<path d="M 166.0 756.5 C 560.1 756.5, 592.9 170.0, 987.0 170.0" fill="none" stroke="#475569" stroke-opacity="0.18" stroke-width="6.59" stroke-linecap="round"/>
<path d="M 166.0 832.7 C 560.1 832.7, 592.9 170.0, 987.0 170.0" fill="none" stroke="#475569" stroke-opacity="0.18" stroke-width="6.59" stroke-linecap="round"/>
<path d="M 166.0 908.4 C 560.1 908.4, 592.9 170.0, 987.0 170.0" fill="none" stroke="#475569" stroke-opacity="0.18" stroke-width="6.43" stroke-linecap="round"/>
<path d="M 166.0 598.6 C 560.1 598.6, 592.9 282.3, 987.0 282.3" fill="none" stroke="#475569" stroke-opacity="0.18" stroke-width="6.42" stroke-linecap="round"/>
<path d="M 166.0 162.1 C 560.1 162.1, 592.9 559.8, 987.0 559.8" fill="none" stroke="#475569" stroke-opacity="0.18" stroke-width="6.40" stroke-linecap="round"/>
<path d="M 166.0 162.1 C 560.1 162.1, 592.9 643.7, 987.0 643.7" fill="none" stroke="#475569" stroke-opacity="0.18" stroke-width="6.40" stroke-linecap="round"/>
<path d="M 166.0 258.5 C 560.1 258.5, 592.9 382.6, 987.0 382.6" fill="none" stroke="#475569" stroke-opacity="0.18" stroke-width="6.40" stroke-linecap="round"/>
<path d="M 166.0 162.1 C 560.1 162.1, 592.9 727.1, 987.0 727.1" fill="none" stroke="#475569" stroke-opacity="0.18" stroke-width="6.30" stroke-linecap="round"/>
<path d="M 1013.0 282.3 C 1407.1 282.3, 1439.9 201.7, 1834.0 201.7" fill="none" stroke="#475569" stroke-opacity="0.18" stroke-width="19.00" stroke-linecap="round"/>
<path d="M 1013.0 170.0 C 1407.1 170.0, 1439.9 372.5, 1834.0 372.5" fill="none" stroke="#475569" stroke-opacity="0.18" stroke-width="18.88" stroke-linecap="round"/>
<path d="M 1013.0 170.0 C 1407.1 170.0, 1439.9 525.7, 1834.0 525.7" fill="none" stroke="#475569" stroke-opacity="0.18" stroke-width="16.87" stroke-linecap="round"/>
<path d="M 1013.0 282.3 C 1407.1 282.3, 1439.9 372.5, 1834.0 372.5" fill="none" stroke="#475569" stroke-opacity="0.18" stroke-width="16.32" stroke-linecap="round"/>
<path d="M 1013.0 382.6 C 1407.1 382.6, 1439.9 201.7, 1834.0 201.7" fill="none" stroke="#475569" stroke-opacity="0.18" stroke-width="15.76" stroke-linecap="round"/>
<path d="M 1013.0 170.0 C 1407.1 170.0, 1439.9 666.6, 1834.0 666.6" fill="none" stroke="#475569" stroke-opacity="0.18" stroke-width="15.26" stroke-linecap="round"/>
<path d="M 1013.0 473.8 C 1407.1 473.8, 1439.9 201.7, 1834.0 201.7" fill="none" stroke="#475569" stroke-opacity="0.18" stroke-width="14.16" stroke-linecap="round"/>
<path d="M 1013.0 382.6 C 1407.1 382.6, 1439.9 372.5, 1834.0 372.5" fill="none" stroke="#475569" stroke-opacity="0.18" stroke-width="13.56" stroke-linecap="round"/>
<path d="M 1013.0 282.3 C 1407.1 282.3, 1439.9 666.6, 1834.0 666.6" fill="none" stroke="#475569" stroke-opacity="0.18" stroke-width="13.22" stroke-linecap="round"/>
<path d="M 1013.0 559.8 C 1407.1 559.8, 1439.9 201.7, 1834.0 201.7" fill="none" stroke="#475569" stroke-opacity="0.18" stroke-width="13.05" stroke-linecap="round"/>
<path d="M 1013.0 643.7 C 1407.1 643.7, 1439.9 201.7, 1834.0 201.7" fill="none" stroke="#475569" stroke-opacity="0.18" stroke-width="13.05" stroke-linecap="round"/>
<path d="M 1013.0 727.1 C 1407.1 727.1, 1439.9 201.7, 1834.0 201.7" fill="none" stroke="#475569" stroke-opacity="0.18" stroke-width="12.82" stroke-linecap="round"/>
<path d="M 1013.0 810.1 C 1407.1 810.1, 1439.9 201.7, 1834.0 201.7" fill="none" stroke="#475569" stroke-opacity="0.18" stroke-width="12.82" stroke-linecap="round"/>
<path d="M 1013.0 893.1 C 1407.1 893.1, 1439.9 201.7, 1834.0 201.7" fill="none" stroke="#475569" stroke-opacity="0.18" stroke-width="12.82" stroke-linecap="round"/>
<path d="M 1013.0 975.7 C 1407.1 975.7, 1439.9 201.7, 1834.0 201.7" fill="none" stroke="#475569" stroke-opacity="0.18" stroke-width="12.58" stroke-linecap="round"/>
<path d="M 1013.0 170.0 C 1407.1 170.0, 1439.9 792.7, 1834.0 792.7" fill="none" stroke="#475569" stroke-opacity="0.18" stroke-width="12.57" stroke-linecap="round"/>
<path d="M 1013.0 170.0 C 1407.1 170.0, 1439.9 908.9, 1834.0 908.9" fill="none" stroke="#475569" stroke-opacity="0.18" stroke-width="12.34" stroke-linecap="round"/>
<path d="M 1013.0 170.0 C 1407.1 170.0, 1439.9 1024.3, 1834.0 1024.3" fill="none" stroke="#475569" stroke-opacity="0.18" stroke-width="12.34" stroke-linecap="round"/>
<path d="M 1013.0 473.8 C 1407.1 473.8, 1439.9 372.5, 1834.0 372.5" fill="none" stroke="#475569" stroke-opacity="0.18" stroke-width="12.20" stroke-linecap="round"/>
<path d="M 1013.0 382.6 C 1407.1 382.6, 1439.9 525.7, 1834.0 525.7" fill="none" stroke="#475569" stroke-opacity="0.18" stroke-width="12.15" stroke-linecap="round"/>
<rect x="140.0" y="120.0" width="26" height="84.3" rx="4" fill="#fb923c" fill-opacity="0.76" stroke="#c2410c" stroke-opacity="0.55"/>
<text class="label" x="184.0" y="169.1" text-anchor="start">Graph Data</text>
<rect x="140.0" y="222.3" width="26" height="72.5" rx="4" fill="#fb923c" fill-opacity="0.76" stroke="#c2410c" stroke-opacity="0.55"/>
<text class="label" x="184.0" y="265.5" text-anchor="start">Spatial / Temporal</text>
<rect x="140.0" y="312.8" width="26" height="67.6" rx="4" fill="#fb923c" fill-opacity="0.76" stroke="#c2410c" stroke-opacity="0.55"/>
<text class="label" x="184.0" y="353.6" text-anchor="start">Streaming</text>
<rect x="140.0" y="398.4" width="26" height="66.8" rx="4" fill="#fb923c" fill-opacity="0.76" stroke="#c2410c" stroke-opacity="0.55"/>
<text class="label" x="184.0" y="438.8" text-anchor="start">Indexing</text>
<rect x="140.0" y="483.1" width="26" height="65.9" rx="4" fill="#fb923c" fill-opacity="0.76" stroke="#c2410c" stroke-opacity="0.55"/>
<text class="label" x="184.0" y="523.1" text-anchor="start">Information Retrieval</text>
<rect x="140.0" y="567.0" width="26" height="63.2" rx="4" fill="#fb923c" fill-opacity="0.76" stroke="#c2410c" stroke-opacity="0.55"/>
<text class="label" x="184.0" y="605.6" text-anchor="start">Cloud DB</text>
<rect x="140.0" y="648.2" width="26" height="61.2" rx="4" fill="#fb923c" fill-opacity="0.76" stroke="#c2410c" stroke-opacity="0.55"/>
<text class="label" x="184.0" y="685.8" text-anchor="start">Privacy / Security</text>
<rect x="140.0" y="727.4" width="26" height="58.2" rx="4" fill="#fb923c" fill-opacity="0.76" stroke="#c2410c" stroke-opacity="0.55"/>
<text class="label" x="184.0" y="763.5" text-anchor="start">Data Integration</text>
<rect x="140.0" y="803.6" width="26" height="58.2" rx="4" fill="#fb923c" fill-opacity="0.76" stroke="#c2410c" stroke-opacity="0.55"/>
<text class="label" x="184.0" y="839.7" text-anchor="start">Distributed DB</text>
<rect x="140.0" y="879.8" width="26" height="57.1" rx="4" fill="#fb923c" fill-opacity="0.76" stroke="#c2410c" stroke-opacity="0.55"/>
<text class="label" x="184.0" y="915.4" text-anchor="start">RDF / Semantic Web</text>
<rect x="140.0" y="954.9" width="26" height="52.4" rx="4" fill="#fb923c" fill-opacity="0.76" stroke="#c2410c" stroke-opacity="0.55"/>
<text class="label" x="184.0" y="988.1" text-anchor="start">Crowdsourcing</text>
<rect x="140.0" y="1025.4" width="26" height="51.2" rx="4" fill="#fb923c" fill-opacity="0.76" stroke="#c2410c" stroke-opacity="0.55"/>
<text class="label" x="184.0" y="1058.0" text-anchor="start">Transactions</text>
<rect x="140.0" y="1094.5" width="26" height="49.8" rx="4" fill="#fb923c" fill-opacity="0.76" stroke="#c2410c" stroke-opacity="0.55"/>
<text class="label" x="184.0" y="1126.5" text-anchor="start">XML</text>
<rect x="140.0" y="1162.4" width="26" height="48.5" rx="4" fill="#fb923c" fill-opacity="0.76" stroke="#c2410c" stroke-opacity="0.55"/>
<text class="label" x="184.0" y="1193.6" text-anchor="start">Query Optimization</text>
<rect x="140.0" y="1228.8" width="26" height="48.5" rx="4" fill="#fb923c" fill-opacity="0.76" stroke="#c2410c" stroke-opacity="0.55"/>
<text class="label" x="184.0" y="1260.1" text-anchor="start">Vector Search</text>
<rect x="140.0" y="1295.3" width="26" height="32.7" rx="4" fill="#fb923c" fill-opacity="0.76" stroke="#c2410c" stroke-opacity="0.55"/>
<text class="label" x="184.0" y="1318.7" text-anchor="start">ML for DB</text>
<rect x="987.0" y="120.0" width="26" height="100.0" rx="4" fill="#fb923c" fill-opacity="0.76" stroke="#c2410c" stroke-opacity="0.55"/>
<text class="label" x="1031.0" y="177.0" text-anchor="start">Graph Data</text>
<rect x="987.0" y="238.0" width="26" height="88.5" rx="4" fill="#fb923c" fill-opacity="0.76" stroke="#c2410c" stroke-opacity="0.55"/>
<text class="label" x="1031.0" y="289.3" text-anchor="start">Spatial / Temporal</text>
<rect x="987.0" y="344.5" width="26" height="76.2" rx="4" fill="#fb923c" fill-opacity="0.76" stroke="#c2410c" stroke-opacity="0.55"/>
<text class="label" x="1031.0" y="389.6" text-anchor="start">Streaming</text>
<rect x="987.0" y="438.7" width="26" height="70.1" rx="4" fill="#fb923c" fill-opacity="0.76" stroke="#c2410c" stroke-opacity="0.55"/>
<text class="label" x="1031.0" y="480.8" text-anchor="start">RDF / Semantic Web</text>
<rect x="987.0" y="526.9" width="26" height="65.9" rx="4" fill="#fb923c" fill-opacity="0.76" stroke="#c2410c" stroke-opacity="0.55"/>
<text class="label" x="1031.0" y="566.8" text-anchor="start">Information Retrieval</text>
<rect x="987.0" y="610.7" width="26" height="65.9" rx="4" fill="#fb923c" fill-opacity="0.76" stroke="#c2410c" stroke-opacity="0.55"/>
<text class="label" x="1031.0" y="650.7" text-anchor="start">ML for DB</text>
<rect x="987.0" y="694.6" width="26" height="65.0" rx="4" fill="#fb923c" fill-opacity="0.76" stroke="#c2410c" stroke-opacity="0.55"/>
<text class="label" x="1031.0" y="734.1" text-anchor="start">Crowdsourcing</text>
<rect x="987.0" y="777.6" width="26" height="65.0" rx="4" fill="#fb923c" fill-opacity="0.76" stroke="#c2410c" stroke-opacity="0.55"/>
<text class="label" x="1031.0" y="817.1" text-anchor="start">Data Integration</text>
<rect x="987.0" y="860.6" width="26" height="65.0" rx="4" fill="#fb923c" fill-opacity="0.76" stroke="#c2410c" stroke-opacity="0.55"/>
<text class="label" x="1031.0" y="900.1" text-anchor="start">Distributed DB</text>
<rect x="987.0" y="943.6" width="26" height="64.1" rx="4" fill="#fb923c" fill-opacity="0.76" stroke="#c2410c" stroke-opacity="0.55"/>
<text class="label" x="1031.0" y="982.7" text-anchor="start">Privacy / Security</text>
<rect x="987.0" y="1025.7" width="26" height="61.2" rx="4" fill="#fb923c" fill-opacity="0.76" stroke="#c2410c" stroke-opacity="0.55"/>
<text class="label" x="1031.0" y="1063.3" text-anchor="start">Cloud DB</text>
<rect x="987.0" y="1105.0" width="26" height="57.1" rx="4" fill="#fb923c" fill-opacity="0.76" stroke="#c2410c" stroke-opacity="0.55"/>
<text class="label" x="1031.0" y="1140.5" text-anchor="start">Indexing</text>
<rect x="987.0" y="1180.1" width="26" height="54.9" rx="4" fill="#fb923c" fill-opacity="0.76" stroke="#c2410c" stroke-opacity="0.55"/>
<text class="label" x="1031.0" y="1214.5" text-anchor="start">Transactions</text>
<rect x="987.0" y="1252.9" width="26" height="49.8" rx="4" fill="#fb923c" fill-opacity="0.76" stroke="#c2410c" stroke-opacity="0.55"/>
<text class="label" x="1031.0" y="1284.9" text-anchor="start">Query Optimization</text>
<rect x="987.0" y="1320.8" width="26" height="48.5" rx="4" fill="#fb923c" fill-opacity="0.76" stroke="#c2410c" stroke-opacity="0.55"/>
<text class="label" x="1031.0" y="1352.0" text-anchor="start">Vector Search</text>
<rect x="987.0" y="1387.2" width="26" height="35.6" rx="4" fill="#fb923c" fill-opacity="0.76" stroke="#c2410c" stroke-opacity="0.55"/>
<text class="label" x="1031.0" y="1412.0" text-anchor="start">XML</text>
<rect x="987.0" y="1440.8" width="26" height="32.7" rx="4" fill="#fb923c" fill-opacity="0.76" stroke="#c2410c" stroke-opacity="0.55"/>
<text class="label" x="1031.0" y="1464.2" text-anchor="start">Text-to-SQL / NLIDB</text>
<rect x="1834.0" y="120.0" width="26" height="163.4" rx="4" fill="#fb923c" fill-opacity="0.76" stroke="#c2410c" stroke-opacity="0.55"/>
<text class="label" x="1816.0" y="208.7" text-anchor="end">Graph Data</text>
<rect x="1834.0" y="301.4" width="26" height="142.1" rx="4" fill="#fb923c" fill-opacity="0.76" stroke="#c2410c" stroke-opacity="0.55"/>
<text class="label" x="1816.0" y="379.5" text-anchor="end">ML for DB</text>
<rect x="1834.0" y="461.5" width="26" height="128.4" rx="4" fill="#fb923c" fill-opacity="0.76" stroke="#c2410c" stroke-opacity="0.55"/>
<text class="label" x="1816.0" y="532.7" text-anchor="end">Spatial / Temporal</text>
<rect x="1834.0" y="607.9" width="26" height="117.3" rx="4" fill="#fb923c" fill-opacity="0.76" stroke="#c2410c" stroke-opacity="0.55"/>
<text class="label" x="1816.0" y="673.6" text-anchor="end">Indexing</text>
<rect x="1834.0" y="743.2" width="26" height="99.0" rx="4" fill="#fb923c" fill-opacity="0.76" stroke="#c2410c" stroke-opacity="0.55"/>
<text class="label" x="1816.0" y="799.7" text-anchor="end">Streaming</text>
<rect x="1834.0" y="860.2" width="26" height="97.4" rx="4" fill="#fb923c" fill-opacity="0.76" stroke="#c2410c" stroke-opacity="0.55"/>
<text class="label" x="1816.0" y="915.9" text-anchor="end">Cloud DB</text>
<rect x="1834.0" y="975.6" width="26" height="97.4" rx="4" fill="#fb923c" fill-opacity="0.76" stroke="#c2410c" stroke-opacity="0.55"/>
<text class="label" x="1816.0" y="1031.3" text-anchor="end">Query Optimization</text>
<rect x="1834.0" y="1091.1" width="26" height="94.8" rx="4" fill="#fb923c" fill-opacity="0.76" stroke="#c2410c" stroke-opacity="0.55"/>
<text class="label" x="1816.0" y="1145.4" text-anchor="end">Privacy / Security</text>
<rect x="1834.0" y="1203.8" width="26" height="86.1" rx="4" fill="#fb923c" fill-opacity="0.76" stroke="#c2410c" stroke-opacity="0.55"/>
<text class="label" x="1816.0" y="1253.9" text-anchor="end">Vector Search</text>
<rect x="1834.0" y="1308.0" width="26" height="78.3" rx="4" fill="#fb923c" fill-opacity="0.76" stroke="#c2410c" stroke-opacity="0.55"/>
<text class="label" x="1816.0" y="1354.1" text-anchor="end">Information Retrieval</text>
<rect x="1834.0" y="1404.3" width="26" height="76.2" rx="4" fill="#fb923c" fill-opacity="0.76" stroke="#c2410c" stroke-opacity="0.55"/>
<text class="label" x="1816.0" y="1449.4" text-anchor="end">Distributed DB</text>
<rect x="1834.0" y="1498.5" width="26" height="70.9" rx="4" fill="#fb923c" fill-opacity="0.76" stroke="#c2410c" stroke-opacity="0.55"/>
<text class="label" x="1816.0" y="1540.9" text-anchor="end">RDF / Semantic Web</text>
<rect x="1834.0" y="1587.4" width="26" height="70.1" rx="4" fill="#fb923c" fill-opacity="0.76" stroke="#c2410c" stroke-opacity="0.55"/>
<text class="label" x="1816.0" y="1629.5" text-anchor="end">Data Integration</text>
<rect x="1834.0" y="1675.5" width="26" height="69.3" rx="4" fill="#fb923c" fill-opacity="0.76" stroke="#c2410c" stroke-opacity="0.55"/>
<text class="label" x="1816.0" y="1717.2" text-anchor="end">Transactions</text>
<rect x="1834.0" y="1762.8" width="26" height="49.8" rx="4" fill="#fb923c" fill-opacity="0.76" stroke="#c2410c" stroke-opacity="0.55"/>
<text class="label" x="1816.0" y="1794.7" text-anchor="end">Text-to-SQL / NLIDB</text>
<rect x="1834.0" y="1830.7" width="26" height="47.0" rx="4" fill="#fb923c" fill-opacity="0.76" stroke="#c2410c" stroke-opacity="0.55"/>
<text class="label" x="1816.0" y="1861.2" text-anchor="end">Crowdsourcing</text>
</svg>